<svg xmlns="http://www.w3.org/2000/svg" width="84.003" height="56.778" viewBox="0 0 84.003 56.778">
    <g id="Group_5" data-name="Group 5" transform="translate(94.841 -150.709)">
        <path id="Path_56" data-name="Path 56"
            d="M-91.212,153.128a1.373,1.373,0,0,0-1.225.745,1.365,1.365,0,0,0-.087,1.046,1.359,1.359,0,0,0,.678.8l14.333,7.39a1.336,1.336,0,0,0,.628.152,1.373,1.373,0,0,0,1.222-.742,1.372,1.372,0,0,0,.087-1.049,1.378,1.378,0,0,0-.678-.8l-14.333-7.387A1.345,1.345,0,0,0-91.212,153.128Z"
            transform="translate(4.714 5.064)" fill="#e0a45e" />
        <path id="Path_57" data-name="Path 57"
            d="M-13.231,175.553H-26.769V160.989a1.375,1.375,0,0,0-1.374-1.373H-78.361a1.374,1.374,0,0,0-1.371,1.373v14.564H-93.27a1.372,1.372,0,0,0-1.374,1.37v9.939a1.374,1.374,0,0,0,1.374,1.37h80.039a1.373,1.373,0,0,0,1.371-1.37v-9.939A1.371,1.371,0,0,0-13.231,175.553ZM-76.987,162.36h47.471v13.193H-76.987ZM-14.6,185.489H-91.9V178.3H-14.6Z"
            transform="translate(0.413 18.645)" fill="#e0a45e" />
        <path id="Path_58" data-name="Path 58"
            d="M-81.9,158.791a1.353,1.353,0,0,0,1.015.449,1.378,1.378,0,0,0,.925-.356,1.376,1.376,0,0,0,.093-1.94l-5.078-5.587a1.358,1.358,0,0,0-1.018-.452,1.364,1.364,0,0,0-.922.359,1.373,1.373,0,0,0-.093,1.94Z"
            transform="translate(15.72 0.412)" fill="#e0a45e" />
        <path id="Path_59" data-name="Path 59"
            d="M-75.4,161.471a1.361,1.361,0,0,0,.09,1.049,1.365,1.365,0,0,0,1.219.742,1.357,1.357,0,0,0,.631-.152l14.33-7.39a1.343,1.343,0,0,0,.678-.8,1.358,1.358,0,0,0-.087-1.049,1.372,1.372,0,0,0-1.222-.745,1.357,1.357,0,0,0-.628.155l-14.33,7.387A1.372,1.372,0,0,0-75.4,161.471Z"
            transform="translate(40.583 5.064)" fill="#e0a45e" />
        <path id="Path_60" data-name="Path 60"
            d="M-71.278,150.906a1.382,1.382,0,0,0-1.018.449l-5.075,5.59a1.374,1.374,0,0,0,.093,1.94,1.376,1.376,0,0,0,.922.356,1.371,1.371,0,0,0,1.018-.449l5.078-5.587a1.376,1.376,0,0,0-.1-1.94A1.353,1.353,0,0,0-71.278,150.906Z"
            transform="translate(35.843 0.412)" fill="#e0a45e" />
        <path id="Path_61" data-name="Path 61"
            d="M-29.588,165.457H-93.954v8.414H-15.44v-8.414H-29.588Zm12.928,7.2H-92.735v-5.973h76.075Z"
            transform="translate(1.858 30.873)" fill="#e0a45e" />
        <path id="Path_62" data-name="Path 62"
            d="M-70.864,150.709a1.988,1.988,0,0,0-1.47.65l-5.075,5.59a1.981,1.981,0,0,0,.133,2.8,1.969,1.969,0,0,0,1.334.513,1.985,1.985,0,0,0,1.47-.647l5.075-5.59a1.981,1.981,0,0,0-.133-2.8A1.973,1.973,0,0,0-70.864,150.709Zm.566,2.5-5.078,5.59a.758.758,0,0,1-.566.247.758.758,0,0,1-.514-.2.762.762,0,0,1-.05-1.077l5.075-5.587a.756.756,0,0,1,.566-.254.744.744,0,0,1,.514.2A.765.765,0,0,1-70.3,153.205Z"
            transform="translate(35.429 0)" fill="#e0a45e" />
        <path id="Path_63" data-name="Path 63"
            d="M-75.439,163.21a1.974,1.974,0,0,0,1.761,1.077,1.966,1.966,0,0,0,.91-.223l14.333-7.387a1.98,1.98,0,0,0,.851-2.67,1.981,1.981,0,0,0-1.764-1.077,1.953,1.953,0,0,0-.907.223l-14.333,7.387A1.98,1.98,0,0,0-75.439,163.21Zm1.034-1.141a.752.752,0,0,1,.377-.442l14.333-7.39a.754.754,0,0,1,.347-.084.763.763,0,0,1,.681.415.753.753,0,0,1,.05.578.749.749,0,0,1-.378.445l-14.333,7.39a.757.757,0,0,1-.35.084.754.754,0,0,1-.678-.414A.76.76,0,0,1-74.405,162.069Z"
            transform="translate(40.171 4.651)" fill="#e0a45e" />
        <path id="Path_64" data-name="Path 64"
            d="M-12.818,175.353H-25.746V161.4a1.983,1.983,0,0,0-1.983-1.983H-77.949a1.981,1.981,0,0,0-1.98,1.983v13.951H-92.857a1.983,1.983,0,0,0-1.984,1.983v9.939a1.983,1.983,0,0,0,1.984,1.98h80.039a1.98,1.98,0,0,0,1.98-1.98v-9.939A1.981,1.981,0,0,0-12.818,175.353Zm.761,11.922a.763.763,0,0,1-.761.761H-92.857a.765.765,0,0,1-.764-.761v-9.939a.763.763,0,0,1,.764-.761H-78.71V161.4a.765.765,0,0,1,.761-.764H-27.73a.763.763,0,0,1,.761.764v15.173h14.151a.761.761,0,0,1,.761.761Z"
            transform="translate(0 18.233)" fill="#e0a45e" />
        <path id="Path_65" data-name="Path 65"
            d="M-41.664,174.718h1.219V160.306h-48.69v14.412h47.471Zm-46.252-13.19h46.252V173.5H-87.916Z"
            transform="translate(11.951 20.09)" fill="#e0a45e" />
        <path id="Path_66" data-name="Path 66"
            d="M-80.47,160.261a1.969,1.969,0,0,0,1.334-.513,1.984,1.984,0,0,0,.133-2.8l-5.078-5.59a1.983,1.983,0,0,0-1.47-.65,1.978,1.978,0,0,0-1.334.517,1.984,1.984,0,0,0-.133,2.8l5.078,5.59A1.98,1.98,0,0,0-80.47,160.261Zm-5.595-8.132a.758.758,0,0,1,.514-.2.752.752,0,0,1,.566.247l5.078,5.587a.766.766,0,0,1-.053,1.08.747.747,0,0,1-.511.2.758.758,0,0,1-.566-.247l-5.078-5.59A.762.762,0,0,1-86.064,152.129Z"
            transform="translate(15.307 0)" fill="#e0a45e" />
        <path id="Path_67" data-name="Path 67"
            d="M-90.8,152.931a1.989,1.989,0,0,0-1.767,1.077,1.981,1.981,0,0,0,.854,2.67l14.33,7.387a1.966,1.966,0,0,0,.91.223,1.984,1.984,0,0,0,1.764-1.077,1.981,1.981,0,0,0-.854-2.67L-89.9,153.154A1.932,1.932,0,0,0-90.8,152.931Zm15.054,9.141a.74.74,0,0,1-.049.578.754.754,0,0,1-.678.414.757.757,0,0,1-.35-.084l-14.333-7.39a.754.754,0,0,1-.374-.445.752.752,0,0,1,.046-.578.767.767,0,0,1,.684-.415.763.763,0,0,1,.347.084l14.333,7.39A.754.754,0,0,1-75.745,162.072Z"
            transform="translate(4.301 4.651)" fill="#e0a45e" />
        <path id="Path_68" data-name="Path 68"
            d="M-30,165.655H-93.757v7.192h77.295v-7.192H-30Zm12.928,6.583H-93.147v-5.973h76.075Z"
            transform="translate(2.27 31.287)" fill="#e0a45e" />
        <path id="Path_69" data-name="Path 69"
            d="M-42.077,173.693h.61V160.5H-88.938v13.19h46.861Zm-46.252-12.578h46.252v11.968H-88.328Z"
            transform="translate(12.363 20.502)" fill="#e0a45e" />
        <path id="Path_70" data-name="Path 70"
            d="M-12.818,175.353H-25.746V161.4a1.983,1.983,0,0,0-1.983-1.983H-77.949a1.981,1.981,0,0,0-1.98,1.983v13.951H-92.857a1.983,1.983,0,0,0-1.984,1.983v9.939a1.983,1.983,0,0,0,1.984,1.98h80.039a1.98,1.98,0,0,0,1.98-1.98v-9.939A1.981,1.981,0,0,0-12.818,175.353Zm1.371,11.922a1.373,1.373,0,0,1-1.371,1.37H-92.857a1.374,1.374,0,0,1-1.374-1.37v-9.939a1.375,1.375,0,0,1,1.374-1.373H-79.32V161.4a1.374,1.374,0,0,1,1.371-1.373H-27.73a1.374,1.374,0,0,1,1.371,1.373v14.56h13.541a1.374,1.374,0,0,1,1.371,1.373Z"
            transform="translate(0 18.233)" fill="#e0a45e" />
        <path id="Path_71" data-name="Path 71"
            d="M-70.864,150.709a1.988,1.988,0,0,0-1.47.65l-5.075,5.59a1.981,1.981,0,0,0,.133,2.8,1.969,1.969,0,0,0,1.334.513,1.985,1.985,0,0,0,1.47-.647l5.075-5.59a1.981,1.981,0,0,0-.133-2.8A1.973,1.973,0,0,0-70.864,150.709Zm1.018,2.908-5.078,5.587a1.382,1.382,0,0,1-1.018.449,1.365,1.365,0,0,1-.922-.356,1.374,1.374,0,0,1-.093-1.94l5.075-5.587a1.374,1.374,0,0,1,1.018-.452,1.359,1.359,0,0,1,.922.359A1.376,1.376,0,0,1-69.846,153.617Z"
            transform="translate(35.429 0)" fill="#e0a45e" />
        <path id="Path_72" data-name="Path 72"
            d="M-75.439,163.21a1.974,1.974,0,0,0,1.761,1.077,1.966,1.966,0,0,0,.91-.223l14.333-7.387a1.98,1.98,0,0,0,.851-2.67,1.981,1.981,0,0,0-1.764-1.077,1.953,1.953,0,0,0-.907.223l-14.333,7.387A1.98,1.98,0,0,0-75.439,163.21Zm15.466-9.515a1.335,1.335,0,0,1,.625-.155,1.372,1.372,0,0,1,1.222.745,1.353,1.353,0,0,1,.09,1.046,1.354,1.354,0,0,1-.681.8l-14.333,7.39a1.335,1.335,0,0,1-.628.152,1.365,1.365,0,0,1-1.219-.742,1.361,1.361,0,0,1-.09-1.049,1.372,1.372,0,0,1,.681-.8Z"
            transform="translate(40.171 4.651)" fill="#e0a45e" />
        <path id="Path_73" data-name="Path 73"
            d="M-90.8,152.931a1.989,1.989,0,0,0-1.767,1.077,1.981,1.981,0,0,0,.854,2.67l14.33,7.387a1.966,1.966,0,0,0,.91.223,1.984,1.984,0,0,0,1.764-1.077,1.981,1.981,0,0,0-.854-2.67L-89.9,153.154A1.932,1.932,0,0,0-90.8,152.931Zm15.636,8.952a1.374,1.374,0,0,1-.087,1.049,1.373,1.373,0,0,1-1.222.742,1.336,1.336,0,0,1-.628-.152l-14.333-7.39a1.359,1.359,0,0,1-.678-.8,1.366,1.366,0,0,1,.087-1.046,1.377,1.377,0,0,1,1.225-.745,1.335,1.335,0,0,1,.625.155l14.333,7.39A1.363,1.363,0,0,1-75.164,161.883Z"
            transform="translate(4.301 4.651)" fill="#e0a45e" />
        <path id="Path_74" data-name="Path 74"
            d="M-80.47,160.261a1.969,1.969,0,0,0,1.334-.513,1.984,1.984,0,0,0,.133-2.8l-5.078-5.59a1.983,1.983,0,0,0-1.47-.65,1.978,1.978,0,0,0-1.334.517,1.984,1.984,0,0,0-.133,2.8l5.078,5.59A1.98,1.98,0,0,0-80.47,160.261Zm-6-8.584a1.379,1.379,0,0,1,.922-.359,1.358,1.358,0,0,1,1.018.452l5.078,5.587a1.376,1.376,0,0,1-.093,1.94,1.376,1.376,0,0,1-.922.356,1.382,1.382,0,0,1-1.018-.449l-5.078-5.587A1.373,1.373,0,0,1-86.473,151.677Z"
            transform="translate(15.307 0)" fill="#e0a45e" />
    </g>
</svg>