<svg xmlns="http://www.w3.org/2000/svg" width="92.001" height="76.78" viewBox="0 0 92.001 76.78">
    <g id="Group_3" data-name="Group 3" transform="translate(99.55 -74.991)">
        <path id="Path_2" data-name="Path 2"
            d="M-90.71,97.073h3.222a1.118,1.118,0,0,0,1.115-1.118,1.117,1.117,0,0,0-1.115-1.115H-90.71a1.118,1.118,0,0,0-1.118,1.115A1.118,1.118,0,0,0-90.71,97.073Z"
            transform="translate(11.719 30.122)" fill="#e0a45e" />
        <path id="Path_3" data-name="Path 3"
            d="M-9.463,75.188H-98.237a1.118,1.118,0,0,0-1.115,1.118V134.64a1.117,1.117,0,0,0,1.115,1.115h3.608v12.986h-3.608a1.118,1.118,0,0,0-1.115,1.118,1.118,1.118,0,0,0,1.115,1.118h79.852a1.118,1.118,0,0,0,1.115-1.118,1.118,1.118,0,0,0-1.115-1.118H-72.077V135.755h3.608a1.117,1.117,0,0,0,1.115-1.115V86.419h10.037V92.5A1.118,1.118,0,0,0-56.2,93.617h6.8v31.424a1.116,1.116,0,0,0,1.118,1.115h5.556v9.982a1.116,1.116,0,0,0,1.115,1.115h3.633v4.433a1.116,1.116,0,0,0,1.118,1.115,1.116,1.116,0,0,0,1.115-1.115v-4.433h3.633a1.116,1.116,0,0,0,1.115-1.115v-9.982h5.556a1.116,1.116,0,0,0,1.118-1.115V93.617h6.8A1.118,1.118,0,0,0-16.394,92.5V86.419h6.931A1.116,1.116,0,0,0-8.345,85.3v-9A1.118,1.118,0,0,0-9.463,75.188ZM-74.31,148.441H-92.4V135.755H-74.31Zm4.723-14.919H-97.119V111.086h27.532Zm0-24.67H-97.119V95.4h27.532Zm0-15.687H-97.119V86.419h27.532Zm36.364,41.854h-7.263V118.132h7.263Zm6.674-11.1H-30.99v-6.906a1.117,1.117,0,0,0-1.115-1.115h-9.5a1.117,1.117,0,0,0-1.115,1.115v6.906h-4.438V93.617h20.609Zm7.923-32.537H-55.083V86.419h36.457Zm8.046-7.2H-97.119V77.421h86.538Z"
            transform="translate(0.3 0.299)" fill="#e0a45e" />
        <path id="Path_4" data-name="Path 4"
            d="M-90.71,93.876h3.222a1.117,1.117,0,0,0,1.115-1.115,1.118,1.118,0,0,0-1.115-1.118H-90.71a1.119,1.119,0,0,0-1.118,1.118A1.118,1.118,0,0,0-90.71,93.876Z"
            transform="translate(11.719 25.27)" fill="#e0a45e" />
        <path id="Path_5" data-name="Path 5"
            d="M-95.216,93.876h3.222a1.117,1.117,0,0,0,1.115-1.115,1.118,1.118,0,0,0-1.115-1.118h-3.222a1.118,1.118,0,0,0-1.118,1.118A1.118,1.118,0,0,0-95.216,93.876Z"
            transform="translate(4.88 25.27)" fill="#e0a45e" />
        <path id="Path_6" data-name="Path 6"
            d="M-95.216,97.073h3.222a1.118,1.118,0,0,0,1.115-1.118,1.117,1.117,0,0,0-1.115-1.115h-3.222a1.118,1.118,0,0,0-1.118,1.115A1.118,1.118,0,0,0-95.216,97.073Z"
            transform="translate(4.88 30.122)" fill="#e0a45e" />
        <path id="Path_7" data-name="Path 7"
            d="M-94.917,94.671h3.222a1.614,1.614,0,0,0,1.614-1.614,1.613,1.613,0,0,0-1.614-1.611h-3.222a1.613,1.613,0,0,0-1.614,1.611A1.614,1.614,0,0,0-94.917,94.671Zm0-2.233h3.222a.62.62,0,0,1,.619.619.621.621,0,0,1-.619.622h-3.222a.621.621,0,0,1-.619-.622A.62.62,0,0,1-94.917,92.438Z"
            transform="translate(4.582 24.971)" fill="#e0a45e" />
        <path id="Path_8" data-name="Path 8"
            d="M-95.794,99.049h-.992v13.678h19.078V99.049H-95.794ZM-78.7,111.735H-95.794V100.041H-78.7Z"
            transform="translate(4.195 36.509)" fill="#e0a45e" />
        <path id="Path_9" data-name="Path 9"
            d="M-90.411,97.868h3.222a1.612,1.612,0,0,0,1.611-1.614,1.611,1.611,0,0,0-1.611-1.611h-3.222a1.613,1.613,0,0,0-1.614,1.611A1.614,1.614,0,0,0-90.411,97.868Zm0-2.233h3.222a.62.62,0,0,1,.619.619.623.623,0,0,1-.619.622h-3.222a.623.623,0,0,1-.622-.622A.621.621,0,0,1-90.411,95.635Z"
            transform="translate(11.42 29.823)" fill="#e0a45e" />
        <path id="Path_10" data-name="Path 10"
            d="M-90.411,94.671h3.222a1.612,1.612,0,0,0,1.611-1.614,1.611,1.611,0,0,0-1.611-1.611h-3.222a1.613,1.613,0,0,0-1.614,1.611A1.614,1.614,0,0,0-90.411,94.671Zm0-2.233h3.222a.622.622,0,0,1,.619.619.623.623,0,0,1-.619.622h-3.222a.623.623,0,0,1-.622-.622A.623.623,0,0,1-90.411,92.438Z"
            transform="translate(11.42 24.971)" fill="#e0a45e" />
        <path id="Path_11" data-name="Path 11"
            d="M-94.917,97.868h3.222a1.614,1.614,0,0,0,1.614-1.614,1.613,1.613,0,0,0-1.614-1.611h-3.222a1.613,1.613,0,0,0-1.614,1.611A1.614,1.614,0,0,0-94.917,97.868Zm0-2.233h3.222a.619.619,0,0,1,.619.619.621.621,0,0,1-.619.622h-3.222a.621.621,0,0,1-.619-.622A.619.619,0,0,1-94.917,95.635Z"
            transform="translate(4.582 29.823)" fill="#e0a45e" />
        <path id="Path_12" data-name="Path 12"
            d="M-80.971,79.452h-.994v5.957h37.449V79.452H-80.971Zm35.46,4.965h-35.46v-3.97h35.46Z"
            transform="translate(26.686 6.77)" fill="#e0a45e" />
        <path id="Path_13" data-name="Path 13"
            d="M-97.67,75.878h-.992v7.757h87.53V75.878H-97.67Zm85.546,6.765H-97.67v-5.77h85.546Z"
            transform="translate(1.348 1.346)" fill="#e0a45e" />
        <path id="Path_14" data-name="Path 14"
            d="M-9.162,74.991H-97.936A1.614,1.614,0,0,0-99.55,76.6v58.334a1.613,1.613,0,0,0,1.614,1.611h3.112v11.994h-3.112a1.614,1.614,0,0,0-1.614,1.614,1.614,1.614,0,0,0,1.614,1.614h79.852a1.612,1.612,0,0,0,1.611-1.614,1.612,1.612,0,0,0-1.611-1.614h-53.2V136.55h3.109a1.613,1.613,0,0,0,1.614-1.611V87.216h9.046V92.8A1.615,1.615,0,0,0-55.9,94.414h6.309V125.34a1.614,1.614,0,0,0,1.614,1.614h5.058v9.484a1.614,1.614,0,0,0,1.614,1.614h3.137v3.935a1.614,1.614,0,0,0,1.614,1.614,1.612,1.612,0,0,0,1.611-1.614v-3.935h3.137a1.612,1.612,0,0,0,1.611-1.614v-9.484h5.06a1.614,1.614,0,0,0,1.614-1.614V94.414h6.309A1.615,1.615,0,0,0-15.6,92.8V87.216h6.435A1.614,1.614,0,0,0-7.549,85.6v-9A1.614,1.614,0,0,0-9.162,74.991ZM-8.543,85.6a.619.619,0,0,1-.619.619h-7.427V92.8a.621.621,0,0,1-.622.619h-7.3v31.92a.621.621,0,0,1-.622.619h-6.052v10.478a.62.62,0,0,1-.619.619h-4.129v4.929a.619.619,0,0,1-.619.619.621.621,0,0,1-.622-.619v-4.929H-41.3a.619.619,0,0,1-.619-.619V125.959h-6.052a.621.621,0,0,1-.622-.619V93.42h-7.3a.621.621,0,0,1-.622-.619V86.222H-67.549v48.717a.623.623,0,0,1-.622.619h-4.1v13.98h54.188a.619.619,0,0,1,.619.619.621.621,0,0,1-.619.622H-97.936a.621.621,0,0,1-.619-.622.619.619,0,0,1,.619-.619h4.1v-13.98h-4.1a.62.62,0,0,1-.619-.619V76.6a.621.621,0,0,1,.619-.622H-9.162a.621.621,0,0,1,.619.622Z"
            transform="translate(0 0)" fill="#e0a45e" />
        <path id="Path_15" data-name="Path 15"
            d="M-77.824,82.311h-.994v31.3h5.433v-7.4a.619.619,0,0,1,.619-.619h9.5a.62.62,0,0,1,.619.619v7.4h5.433v-31.3H-77.824Zm19.617,30.306h-3.449v-6.41a1.613,1.613,0,0,0-1.611-1.614h-9.5a1.615,1.615,0,0,0-1.614,1.614v6.41h-3.444V83.305h19.617Z"
            transform="translate(31.462 11.108)" fill="#e0a45e" />
        <path id="Path_16" data-name="Path 16"
            d="M-75.175,92.05h-.992v17.877h8.255V92.05h-7.263Zm6.271,7.4v9.484h-6.271V93.042H-68.9Z"
            transform="translate(35.485 25.888)" fill="#e0a45e" />
        <path id="Path_17" data-name="Path 17"
            d="M-97.67,89.25h-.992v23.428h28.524V89.25H-97.67Zm26.54,22.436H-97.67V90.244h26.54Z"
            transform="translate(1.348 21.639)" fill="#e0a45e" />
        <path id="Path_18" data-name="Path 18"
            d="M-97.67,83.019h-.992V97.465h28.524V83.019H-97.67Zm26.54,13.454H-97.67V84.011h26.54Z"
            transform="translate(1.348 12.183)" fill="#e0a45e" />
        <path id="Path_19" data-name="Path 19"
            d="M-97.67,79.452h-.992v7.739h28.524V79.452H-97.67ZM-71.13,86.2H-97.67v-5.75h26.54Z"
            transform="translate(1.348 6.77)" fill="#e0a45e" />
        <path id="Path_20" data-name="Path 20"
            d="M-94.917,94.671h3.222a1.614,1.614,0,0,0,1.614-1.614,1.613,1.613,0,0,0-1.614-1.611h-3.222a1.613,1.613,0,0,0-1.614,1.611A1.614,1.614,0,0,0-94.917,94.671Zm0-2.729h3.222a1.117,1.117,0,0,1,1.115,1.115,1.118,1.118,0,0,1-1.115,1.118h-3.222a1.118,1.118,0,0,1-1.115-1.118A1.117,1.117,0,0,1-94.917,91.942Z"
            transform="translate(4.582 24.971)" fill="#e0a45e" />
        <path id="Path_21" data-name="Path 21"
            d="M-96.093,99.246h-.5v12.686H-78.5V99.246h-17.59ZM-79,111.436H-96.093V99.742H-79Z"
            transform="translate(4.493 36.808)" fill="#e0a45e" />
        <path id="Path_22" data-name="Path 22"
            d="M-90.411,97.868h3.222a1.612,1.612,0,0,0,1.611-1.614,1.611,1.611,0,0,0-1.611-1.611h-3.222a1.613,1.613,0,0,0-1.614,1.611A1.614,1.614,0,0,0-90.411,97.868Zm0-2.729h3.222a1.117,1.117,0,0,1,1.115,1.115,1.118,1.118,0,0,1-1.115,1.118h-3.222a1.118,1.118,0,0,1-1.118-1.118A1.118,1.118,0,0,1-90.411,95.139Z"
            transform="translate(11.42 29.823)" fill="#e0a45e" />
        <path id="Path_23" data-name="Path 23"
            d="M-90.411,94.671h3.222a1.612,1.612,0,0,0,1.611-1.614,1.611,1.611,0,0,0-1.611-1.611h-3.222a1.613,1.613,0,0,0-1.614,1.611A1.614,1.614,0,0,0-90.411,94.671Zm0-2.729h3.222a1.117,1.117,0,0,1,1.115,1.115,1.118,1.118,0,0,1-1.115,1.118h-3.222a1.118,1.118,0,0,1-1.118-1.118A1.118,1.118,0,0,1-90.411,91.942Z"
            transform="translate(11.42 24.971)" fill="#e0a45e" />
        <path id="Path_24" data-name="Path 24"
            d="M-97.969,89.447h-.5v22.436h27.532V89.447H-97.969Zm26.54,21.94h-26.54V89.945h26.54Z"
            transform="translate(1.647 21.938)" fill="#e0a45e" />
        <path id="Path_25" data-name="Path 25"
            d="M-97.969,76.076h-.5v6.762h86.538V76.076H-97.969Zm85.546,6.266H-97.969v-5.77h85.546Z"
            transform="translate(1.647 1.647)" fill="#e0a45e" />
        <path id="Path_26" data-name="Path 26"
            d="M-94.917,97.868h3.222a1.614,1.614,0,0,0,1.614-1.614,1.613,1.613,0,0,0-1.614-1.611h-3.222a1.613,1.613,0,0,0-1.614,1.611A1.614,1.614,0,0,0-94.917,97.868Zm0-2.729h3.222a1.117,1.117,0,0,1,1.115,1.115,1.118,1.118,0,0,1-1.115,1.118h-3.222a1.118,1.118,0,0,1-1.115-1.118A1.117,1.117,0,0,1-94.917,95.139Z"
            transform="translate(4.582 29.823)" fill="#e0a45e" />
        <path id="Path_27" data-name="Path 27"
            d="M-81.27,79.649h-.5v4.965h36.454V79.649H-81.27Zm35.46,4.469H-81.27v-3.97h35.46Z"
            transform="translate(26.985 7.069)" fill="#e0a45e" />
        <path id="Path_28" data-name="Path 28"
            d="M-9.162,74.991H-97.936A1.614,1.614,0,0,0-99.55,76.6v58.334a1.613,1.613,0,0,0,1.614,1.611h3.112v11.994h-3.112a1.614,1.614,0,0,0-1.614,1.614,1.614,1.614,0,0,0,1.614,1.614h79.852a1.612,1.612,0,0,0,1.611-1.614,1.612,1.612,0,0,0-1.611-1.614h-53.2V136.55h3.109a1.613,1.613,0,0,0,1.614-1.611V87.216h9.046V92.8A1.615,1.615,0,0,0-55.9,94.414h6.309V125.34a1.614,1.614,0,0,0,1.614,1.614h5.058v9.484a1.614,1.614,0,0,0,1.614,1.614h3.137v3.935a1.614,1.614,0,0,0,1.614,1.614,1.612,1.612,0,0,0,1.611-1.614v-3.935h3.137a1.612,1.612,0,0,0,1.611-1.614v-9.484h5.06a1.614,1.614,0,0,0,1.614-1.614V94.414h6.309A1.615,1.615,0,0,0-15.6,92.8V87.216h6.435A1.614,1.614,0,0,0-7.549,85.6v-9A1.614,1.614,0,0,0-9.162,74.991ZM-8.044,85.6a1.118,1.118,0,0,1-1.118,1.115h-6.931V92.8a1.118,1.118,0,0,1-1.118,1.115h-6.8V125.34a1.118,1.118,0,0,1-1.118,1.118H-30.69v9.98a1.118,1.118,0,0,1-1.115,1.118h-3.633v4.431a1.118,1.118,0,0,1-1.115,1.118,1.118,1.118,0,0,1-1.118-1.118v-4.431H-41.3a1.118,1.118,0,0,1-1.115-1.118v-9.98h-5.556a1.118,1.118,0,0,1-1.118-1.118V93.915h-6.8A1.118,1.118,0,0,1-57.016,92.8V86.718H-67.053v48.221a1.118,1.118,0,0,1-1.118,1.115h-3.605V149.04h53.692a1.118,1.118,0,0,1,1.115,1.118,1.118,1.118,0,0,1-1.115,1.118H-97.936a1.118,1.118,0,0,1-1.115-1.118,1.118,1.118,0,0,1,1.115-1.118h3.608V136.054h-3.608a1.117,1.117,0,0,1-1.115-1.115V76.6a1.118,1.118,0,0,1,1.115-1.118H-9.162A1.118,1.118,0,0,1-8.044,76.6Z"
            transform="translate(0 0)" fill="#e0a45e" />
        <path id="Path_29" data-name="Path 29"
            d="M-78.124,82.508h-.5v30.306h4.438v-6.906a1.117,1.117,0,0,1,1.115-1.115h9.5a1.117,1.117,0,0,1,1.115,1.115v6.906h4.441V82.508H-78.124Zm19.617,29.81h-3.449v-6.41a1.613,1.613,0,0,0-1.611-1.614h-9.5a1.615,1.615,0,0,0-1.614,1.614v6.41h-3.444V83.006h19.617Z"
            transform="translate(31.762 11.407)" fill="#e0a45e" />
        <path id="Path_30" data-name="Path 30"
            d="M-97.969,83.216h-.5V96.67h27.532V83.216H-97.969Zm26.54,12.958h-26.54V83.712h26.54Z"
            transform="translate(1.647 12.482)" fill="#e0a45e" />
        <path id="Path_31" data-name="Path 31"
            d="M-75.474,92.247h-.5v16.885h7.263V92.247h-6.767Zm6.271,6.906v9.484h-6.271V92.743H-69.2Z"
            transform="translate(35.784 26.187)" fill="#e0a45e" />
        <path id="Path_32" data-name="Path 32"
            d="M-97.969,79.649h-.5v6.745h27.532V79.649H-97.969Zm26.54,6.249h-26.54v-5.75h26.54Z"
            transform="translate(1.647 7.069)" fill="#e0a45e" />
    </g>
</svg>