<svg xmlns="http://www.w3.org/2000/svg" width="88.363" height="76.781" viewBox="0 0 88.363 76.781">
    <g id="Group_4" data-name="Group 4" transform="translate(105.555 25.159)">
        <path id="Path_33" data-name="Path 33"
            d="M-19.026-9.562H-74.834v-5.585a1.076,1.076,0,0,0-1.076-1.073H-88.224v-7.664A1.076,1.076,0,0,0-89.3-24.961h-14.984a1.077,1.077,0,0,0-1.076,1.076V49.786a1.076,1.076,0,0,0,1.076,1.073h77.418a1.076,1.076,0,0,0,1.076-1.073,1.074,1.074,0,0,0-1.076-1.073h-6.47l-3.443-8.091a1.072,1.072,0,0,0-.989-.652h-2.382v-5.9A1.076,1.076,0,0,0-41.224,33H-43.48V18.243a1.075,1.075,0,0,0-1.073-1.073h-5.828a1.076,1.076,0,0,0-1.076,1.073V33H-53.71a1.076,1.076,0,0,0-1.076,1.073v5.9h-2.382a1.07,1.07,0,0,0-.989.654L-61.6,48.713h-41.607V27.133H-89.3a1.074,1.074,0,0,0,1.073-1.073V18.4H-75.91a1.077,1.077,0,0,0,1.076-1.076V11.734h55.809a1.074,1.074,0,0,0,1.076-1.073V-8.486A1.077,1.077,0,0,0-19.026-9.562ZM-49.3,19.319h3.676V33H-49.3Zm-3.329,15.83H-42.3v4.822H-52.634Zm-3.824,6.971h17.979l2.808,6.593H-59.264ZM-90.374,24.986h-12.835v-47.8h12.835Zm13.39-8.74H-88.224V-14.072h11.241Zm2.149-7.468V-7.413H-63.4l-.116.574c-1.6,7.817-7.3,12.811-10.562,15.091Zm10.795.807h-8.117l1.061-.851c3.749-3,8.5-8.166,9.814-15.753l.07-.395h9.952l-.116.574C-53.421,3.171-62.193,8.548-63.93,9.524Zm12.145,0h-8.117l1.064-.851c3.749-3,8.493-8.166,9.811-15.753l.07-.395h9.952l-.116.574C-41.277,3.171-50.049,8.548-51.786,9.524Zm12.145,0h-8.117l1.061-.851c3.751-3,8.5-8.166,9.814-15.753l.07-.395h9.952l-.116.574C-29.132,3.161-37.9,8.545-39.641,9.524Zm19.651,0H-35.726l1.064-.851c3.749-3,8.5-8.166,9.814-15.753l.07-.395H-20.1Z"
            transform="translate(0.28 0.282)" fill="#e0a45e" />
        <path id="Path_34" data-name="Path 34"
            d="M-18.745-9.758H-74.077v-5.108a1.553,1.553,0,0,0-1.553-1.553H-87.467v-7.187a1.553,1.553,0,0,0-1.551-1.553H-104a1.555,1.555,0,0,0-1.553,1.553V50.068A1.555,1.555,0,0,0-104,51.621h77.418a1.555,1.555,0,0,0,1.553-1.553,1.553,1.553,0,0,0-1.553-1.553h-6.152l-3.322-7.8a1.549,1.549,0,0,0-1.427-.943h-1.9v-5.42A1.553,1.553,0,0,0-40.943,32.8h-1.776V18.524a1.553,1.553,0,0,0-1.553-1.551H-50.1a1.553,1.553,0,0,0-1.553,1.551V32.8h-1.776a1.553,1.553,0,0,0-1.553,1.551v5.42h-1.9a1.549,1.549,0,0,0-1.427.943l-3.322,7.8h-40.815V27.895h13.434a1.551,1.551,0,0,0,1.551-1.553V19.154H-75.63A1.553,1.553,0,0,0-74.077,17.6V12.5h55.331a1.553,1.553,0,0,0,1.553-1.553V-8.2A1.552,1.552,0,0,0-18.745-9.758Zm.6,20.7a.6.6,0,0,1-.6.6H-75.031V17.6a.6.6,0,0,1-.6.6H-88.421v8.142a.6.6,0,0,1-.6.6h-14.388V49.47h42.4l.25-.579,3.32-7.8a.6.6,0,0,1,.55-.361h2.859V34.355a.6.6,0,0,1,.6-.6H-50.7V18.524a.6.6,0,0,1,.6-.6h5.828a.6.6,0,0,1,.6.6V33.758h2.733a.6.6,0,0,1,.6.6V40.73h2.862a.589.589,0,0,1,.548.363l3.322,7.8.247.579h6.785a.6.6,0,0,1,.6.6.6.6,0,0,1-.6.6H-104a.6.6,0,0,1-.6-.6V-23.606a.6.6,0,0,1,.6-.6h14.984a.6.6,0,0,1,.6.6v8.144H-75.63a.6.6,0,0,1,.6.6V-8.8h56.286a.6.6,0,0,1,.6.6Z"
            transform="translate(0)" fill="#e0a45e" />
        <path id="Path_35" data-name="Path 35"
            d="M-63.039,10.072H-61.6l-.567-1.328-2.4-5.639-.247-.579H-83.42l-.247.579-2.4,5.639-.565,1.328h23.594ZM-82.788,3.481h17.347l2.4,5.636H-85.189Z"
            transform="translate(26.928 39.398)" fill="#e0a45e" />
        <path id="Path_36" data-name="Path 36"
            d="M-78.745,7.751h.955V-6.884h-4.633V7.751h3.678ZM-81.466-5.929h2.721V6.8h-2.721Z"
            transform="translate(32.919 26.007)" fill="#e0a45e" />
        <path id="Path_37" data-name="Path 37"
            d="M-73.46,5.426h.957V-.351H-83.8V5.426H-73.46ZM-82.84.6h9.38V4.471h-9.38Z"
            transform="translate(30.964 35.304)" fill="#e0a45e" />
        <path id="Path_38" data-name="Path 38"
            d="M-103.713-24.271h-.955V24.482h13.79V-24.271h-12.835Zm11.88,8.142V23.524h-11.88V-23.316h11.88Z"
            transform="translate(1.262 1.264)" fill="#e0a45e" />
        <path id="Path_39" data-name="Path 39"
            d="M-80.7-16.77l.233-1.146H-92.958V-.332l1.5-1.049C-88.138-3.7-82.33-8.788-80.7-16.77ZM-92-2.166v-14.8h10.366C-83.2-9.309-88.812-4.4-92-2.166Z"
            transform="translate(17.927 10.307)" fill="#e0a45e" />
        <path id="Path_40" data-name="Path 40"
            d="M-69.608-16.77l.233-1.146H-80.313l-.138.792c-1.294,7.436-5.956,12.51-9.641,15.459l-2.125,1.7h9.605l.218-.121C-80.626-1.08-71.694-6.561-69.608-16.77ZM-82.862-.918h-6.632c3.717-2.976,8.629-8.253,9.986-16.043h8.963C-72.545-7.165-81.2-1.856-82.862-.918Z"
            transform="translate(18.98 10.307)" fill="#e0a45e" />
        <path id="Path_41" data-name="Path 41"
            d="M-64.6-16.77l.233-1.146H-75.3l-.138.792C-76.733-9.687-81.4-4.613-85.081-1.664l-2.125,1.7H-77.6l.218-.121C-75.614-1.08-66.682-6.561-64.6-16.77ZM-77.85-.918h-6.632c3.717-2.976,8.629-8.253,9.986-16.043h8.963C-67.533-7.165-76.186-1.856-77.85-.918Z"
            transform="translate(26.112 10.307)" fill="#e0a45e" />
        <path id="Path_42" data-name="Path 42"
            d="M-59.584-16.77l.233-1.146H-70.289l-.138.792c-1.294,7.436-5.956,12.51-9.641,15.459l-2.125,1.7h9.605l.218-.121C-70.6-1.08-61.67-6.564-59.584-16.77ZM-72.838-.918h-6.634c3.719-2.976,8.631-8.253,9.988-16.043h8.963C-62.523-7.165-71.174-1.856-72.838-.918Z"
            transform="translate(33.245 10.307)" fill="#e0a45e" />
        <path id="Path_43" data-name="Path 43"
            d="M-64.473-17.916h-.8l-.138.792c-1.294,7.436-5.958,12.51-9.641,15.459l-2.125,1.7h17.463V-17.916h-4.754Zm3.8,17H-74.461c3.719-2.976,8.631-8.253,9.988-16.043h3.8Z"
            transform="translate(40.377 10.307)" fill="#e0a45e" />
        <path id="Path_44" data-name="Path 44"
            d="M-97.529-20.664h-.955V10.608h12.2V-20.664H-97.529ZM-87.243-14.6V9.654H-97.529V-19.709h10.286Z"
            transform="translate(10.063 6.397)" fill="#e0a45e" />
        <path id="Path_45" data-name="Path 45"
            d="M-103.994-24.074h-.477v47.8h12.835v-47.8h-12.358Zm11.88,7.664V23.244h-11.88V-23.6h11.88Z"
            transform="translate(1.543 1.544)" fill="#e0a45e" />
        <path id="Path_46" data-name="Path 46"
            d="M-63.463,9.314h.722l-.283-.664-2.4-5.636-.124-.291H-83.529l-.124.291-2.4,5.636-.283.664h22.872ZM-83.212,3.2h17.347l2.4,5.636H-85.613Z"
            transform="translate(27.352 39.679)" fill="#e0a45e" />
        <path id="Path_47" data-name="Path 47"
            d="M-79.027,6.994h.477V-6.687h-3.676V6.994h3.2Zm-2.721-13.2h2.721V6.516h-2.721Z"
            transform="translate(33.201 26.287)" fill="#e0a45e" />
        <path id="Path_48" data-name="Path 48"
            d="M-73.74,4.668h.477V-.154H-83.6V4.668h9.86ZM-83.12.323h9.38V4.191h-9.38Z"
            transform="translate(31.244 35.584)" fill="#e0a45e" />
        <path id="Path_49" data-name="Path 49"
            d="M-60.852-17.145l.116-.574h-9.952l-.07.4c-1.318,7.582-6.065,12.75-9.814,15.75l-1.061.851h8.117l.109-.061C-71.668-1.761-62.9-7.142-60.852-17.145ZM-73.638-1.2h-6.634c3.719-2.976,8.631-8.253,9.988-16.043h8.963C-63.323-7.445-71.974-2.136-73.638-1.2Z"
            transform="translate(34.045 10.588)" fill="#e0a45e" />
        <path id="Path_50" data-name="Path 50"
            d="M-97.81-20.467h-.477V9.851h11.241V-20.467H-97.81Zm10.286,5.585V9.373H-97.81V-19.99h10.286Z"
            transform="translate(10.343 6.677)" fill="#e0a45e" />
        <path id="Path_51" data-name="Path 51"
            d="M-18.745-9.758H-74.077v-5.108a1.553,1.553,0,0,0-1.553-1.553H-87.467v-7.187a1.553,1.553,0,0,0-1.551-1.553H-104a1.555,1.555,0,0,0-1.553,1.553V50.068A1.555,1.555,0,0,0-104,51.621h77.418a1.555,1.555,0,0,0,1.553-1.553,1.553,1.553,0,0,0-1.553-1.553h-6.152l-3.322-7.8a1.549,1.549,0,0,0-1.427-.943h-1.9v-5.42A1.553,1.553,0,0,0-40.943,32.8h-1.776V18.524a1.553,1.553,0,0,0-1.553-1.551H-50.1a1.553,1.553,0,0,0-1.553,1.551V32.8h-1.776a1.553,1.553,0,0,0-1.553,1.551v5.42h-1.9a1.549,1.549,0,0,0-1.427.943l-3.322,7.8h-40.815V27.895h13.434a1.551,1.551,0,0,0,1.551-1.553V19.154H-75.63A1.553,1.553,0,0,0-74.077,17.6V12.5h55.331a1.553,1.553,0,0,0,1.553-1.553V-8.2A1.552,1.552,0,0,0-18.745-9.758Zm1.076,20.7a1.078,1.078,0,0,1-1.076,1.076H-74.554V17.6a1.077,1.077,0,0,1-1.076,1.076H-87.944v7.664a1.076,1.076,0,0,1-1.073,1.076h-13.911V48.992h41.607l.124-.291,3.322-7.8a1.072,1.072,0,0,1,.989-.652h2.382v-5.9a1.076,1.076,0,0,1,1.076-1.073h2.253V18.524A1.076,1.076,0,0,1-50.1,17.451h5.828A1.075,1.075,0,0,1-43.2,18.524V33.281h2.256a1.076,1.076,0,0,1,1.076,1.073v5.9h2.382a1.072,1.072,0,0,1,.989.652l3.32,7.8.124.291h6.47a1.077,1.077,0,0,1,1.076,1.076,1.078,1.078,0,0,1-1.076,1.076H-104a1.078,1.078,0,0,1-1.076-1.076V-23.606A1.076,1.076,0,0,1-104-24.679h14.984a1.075,1.075,0,0,1,1.073,1.073v7.664H-75.63a1.078,1.078,0,0,1,1.076,1.076V-9.28h55.809A1.077,1.077,0,0,1-17.67-8.2Z"
            transform="translate(0)" fill="#e0a45e" />
        <path id="Path_52" data-name="Path 52"
            d="M-65.271-17.719h-.4l-.07.4c-1.318,7.582-6.065,12.75-9.814,15.75l-1.064.851h15.627v-17h-4.277Zm3.8,16.521H-75.259c3.719-2.976,8.631-8.253,9.988-16.043h3.8Z"
            transform="translate(41.176 10.588)" fill="#e0a45e" />
        <path id="Path_53" data-name="Path 53"
            d="M-81.448-17.145l.116-.574h-11.43V-1.528l.751-.526C-88.751-4.334-83.044-9.328-81.448-17.145Zm-10.836,14.7v-14.8h10.366C-83.478-9.59-89.092-4.678-92.284-2.446Z"
            transform="translate(18.207 10.588)" fill="#e0a45e" />
        <path id="Path_54" data-name="Path 54"
            d="M-70.876-17.145l.116-.574h-9.952l-.07.4C-82.1-9.74-86.844-4.571-90.592-1.572l-1.064.851h8.12l.109-.061C-81.69-1.758-72.921-7.142-70.876-17.145ZM-83.662-1.2h-6.632c3.717-2.976,8.629-8.253,9.986-16.043h8.963C-73.345-7.445-82-2.136-83.662-1.2Z"
            transform="translate(19.78 10.588)" fill="#e0a45e" />
        <path id="Path_55" data-name="Path 55"
            d="M-65.864-17.145l.116-.574H-75.7l-.07.4c-1.318,7.582-6.063,12.75-9.811,15.75l-1.064.851h8.117l.109-.061C-76.68-1.758-67.909-7.142-65.864-17.145ZM-78.65-1.2h-6.632c3.717-2.976,8.629-8.253,9.986-16.043h8.963C-68.333-7.445-76.986-2.136-78.65-1.2Z"
            transform="translate(26.912 10.588)" fill="#e0a45e" />
    </g>
</svg>