<svg xmlns="http://www.w3.org/2000/svg" width="81.423" height="76.78" viewBox="0 0 81.423 76.78">
    <g id="Group_6" data-name="Group 6" transform="translate(-533.658 -77.688)">
        <path id="Path_75" data-name="Path 75"
            d="M613.379,77.885H534.863a1.009,1.009,0,0,0-1.008,1.005v9.025a1.009,1.009,0,0,0,1.008,1.005h18.232v11.446h-.874a1.008,1.008,0,0,0-.955.688l-7.3,21.849-.034.17a1.6,1.6,0,0,0,0,.263,1.041,1.041,0,0,0,.07.245l.082.168,6.91,8.215-.27.288a4.34,4.34,0,0,0,3.177,7.312h1.793l7.732,13.7a1.007,1.007,0,0,0,1.752,0l7.734-13.7H574.7a4.339,4.339,0,0,0,3.177-7.312l-.27-.29,6.851-8.147.061-.107.023-.02.057-.1a.958.958,0,0,0,.07-.313,1.041,1.041,0,0,0-.02-.288l-.02-.111-3.2-9.583h7.763a11.957,11.957,0,0,0,11.943-11.943V95.974h7.557a1.008,1.008,0,0,0,1.008-1.005V88.921h3.685a1.007,1.007,0,0,0,1.005-1.005V78.89A1.007,1.007,0,0,0,613.379,77.885ZM564.3,150.717,558,139.565H570.6Zm10.4-13.167H553.9a2.341,2.341,0,1,1,0-4.682h20.8a2.341,2.341,0,1,1,0,4.682Zm1.207-6.7H552.688l-5.6-6.651h34.417Zm6.368-8.667H546.325l6.622-19.8h22.7l2.975,8.9H564.3a1.006,1.006,0,1,0,0,2.013h15Zm-27.166-21.82V88.921h18.379v11.446Zm44.009.98a9.942,9.942,0,0,1-9.93,9.931h-8.437l-3.418-10.223a1.008,1.008,0,0,0-.956-.688H575.5V88.921H590.55v6.048a1.008,1.008,0,0,0,1.007,1.005h7.559Zm8.565-7.387H592.562v-5.04h15.118Zm4.691-7.053h-76.5V79.9h76.5Z"
            transform="translate(0.25 0.25)" fill="#e0a45e" />
        <path id="Path_76" data-name="Path 76"
            d="M613.627,77.688H535.113a1.454,1.454,0,0,0-1.455,1.452v9.025a1.454,1.454,0,0,0,1.455,1.452H552.9V100.17h-.427a1.455,1.455,0,0,0-1.38.992l-7.3,21.822c-.016.05-.02.1-.032.154s-.023.088-.027.134a1.514,1.514,0,0,0,0,.288c0,.029,0,.059,0,.088a1.434,1.434,0,0,0,.1.361c.014.032.034.061.05.091a1.222,1.222,0,0,0,.107.193.389.389,0,0,0,.041.045c.009.014.016.029.025.043l6.583,7.818a4.786,4.786,0,0,0,3.5,8.063h1.532l7.6,13.466a1.455,1.455,0,0,0,2.533,0l7.6-13.468h1.53a4.786,4.786,0,0,0,3.5-8.063l6.583-7.818a.416.416,0,0,0,.025-.043c.014-.016.03-.027.043-.045a1.294,1.294,0,0,0,.1-.191c.016-.032.039-.061.052-.093a1.513,1.513,0,0,0,.1-.361c0-.029,0-.059,0-.088a1.366,1.366,0,0,0,0-.288.9.9,0,0,0-.027-.134,1.158,1.158,0,0,0-.032-.154l-3.007-9h7.142a12.4,12.4,0,0,0,12.39-12.391V96.671h7.11a1.453,1.453,0,0,0,1.455-1.452v-5.6h3.236a1.453,1.453,0,0,0,1.455-1.452V79.14A1.453,1.453,0,0,0,613.627,77.688Zm.561,10.477a.561.561,0,0,1-.561.558H609.5v6.495a.561.561,0,0,1-.561.558h-8V101.6a11.509,11.509,0,0,1-11.5,11.5h-8.385l.395,1.18,3,8.957.032.148a.429.429,0,0,1,0,.109l0,.073a.385.385,0,0,1-.02.068l-.036.068-.027.057-.027.034-.061.082-6.527,7.754-.511.606.54.579a3.893,3.893,0,0,1-2.85,6.561H572.9l-.259.454-7.6,13.468a.558.558,0,0,1-.974,0l-7.6-13.466-.256-.454h-2.054a3.891,3.891,0,0,1-2.85-6.558l.54-.581-.511-.606-6.529-7.757-.011-.02-.048-.061-.021-.025-.034-.064-.034-.066a.667.667,0,0,1-.023-.073v-.029l0-.039a.569.569,0,0,1,0-.109l.011-.045,0-.009.016-.093.009-.025h0l7.276-21.761a.561.561,0,0,1,.531-.384h1.321V88.724H535.113a.559.559,0,0,1-.558-.558V79.14a.559.559,0,0,1,.558-.558h78.514a.561.561,0,0,1,.561.558Z"
            transform="translate(0)" fill="#e0a45e" />
        <path id="Path_77" data-name="Path 77"
            d="M565.048,101.917h-20.8a2.789,2.789,0,1,0,0,5.578h20.8a2.789,2.789,0,0,0,0-5.578Zm0,4.682h-20.8a1.894,1.894,0,1,1,0-3.788h20.8a1.894,1.894,0,1,1,0,3.788Z"
            transform="translate(9.901 30.754)" fill="#e0a45e" />
        <path id="Path_78" data-name="Path 78"
            d="M545.69,104.868h-1.532l.753,1.334,5.528,9.792.78,1.382.778-1.382,5.53-9.792.753-1.334H545.69Zm5.53,10.689-5.53-9.794H556.75Z"
            transform="translate(13.328 34.5)" fill="#e0a45e" />
        <path id="Path_79" data-name="Path 79"
            d="M535.44,78.575h-.894v7.9h77.4v-7.9h-76.5Zm75.607,7.01H535.44V79.469h75.607Z"
            transform="translate(1.127 1.126)" fill="#e0a45e" />
        <path id="Path_80" data-name="Path 80"
            d="M562.3,94.892V82.551H543.023V94.892H562.3ZM543.917,83.445H561.4V94H543.917Z"
            transform="translate(11.887 6.173)" fill="#e0a45e" />
        <path id="Path_81" data-name="Path 81"
            d="M560.424,82.551h-.9v5.934H575.54V82.551H560.424Zm14.222,5.04H560.424V83.445h14.222Z"
            transform="translate(32.837 6.173)" fill="#e0a45e" />
        <path id="Path_82" data-name="Path 82"
            d="M568.513,89.6a.561.561,0,0,1-.561-.558V82.551H552.01V94.892h1.321a.561.561,0,0,1,.531.384l3.315,9.917.2.61h8.76a10.388,10.388,0,0,0,10.378-10.378V89.6h-8.006Zm7.11,5.821a9.493,9.493,0,0,1-9.481,9.484h-8.115l-3.315-9.919a1.458,1.458,0,0,0-1.38-.992H552.9V83.445h14.154v5.6a1.453,1.453,0,0,0,1.455,1.452h7.11Z"
            transform="translate(23.295 6.173)" fill="#e0a45e" />
        <path id="Path_83" data-name="Path 83"
            d="M572.993,99.393H557.671a.559.559,0,1,1,0-1.119h14.948l-.395-1.178-2.675-8-.2-.613H546l-.2.613L539.469,108l-.393,1.18h37.192l-.395-1.18-2.676-8Zm-32.676,8.9,6.325-18.91H568.7l2.676,8h-13.7a1.453,1.453,0,1,0,0,2.907h14.678l2.676,8Z"
            transform="translate(6.877 13.701)" fill="#e0a45e" />
        <path id="Path_84" data-name="Path 84"
            d="M541.185,98.1h-1.922l1.237,1.471,4.847,5.757.27.32H569.25l.268-.32,4.847-5.757L575.6,98.1H541.185Zm27.649,6.651h-22.8l-4.847-5.757H573.68Z"
            transform="translate(7.115 25.907)" fill="#e0a45e" />
        <path id="Path_85" data-name="Path 85"
            d="M561.6,94.194V82.748H543.22V94.194H561.6Zm-17.932-11h17.485V93.747H543.667Z"
            transform="translate(12.137 6.423)" fill="#e0a45e" />
        <path id="Path_86" data-name="Path 86"
            d="M568.263,89.8a1.008,1.008,0,0,1-1.008-1.005V82.748H552.207V94.194h.874a1.008,1.008,0,0,1,.955.688l3.315,9.917.1.306h8.437a9.942,9.942,0,0,0,9.931-9.931V89.8h-7.559Zm7.11,5.374a9.493,9.493,0,0,1-9.481,9.484h-8.115l-3.315-9.919a1.457,1.457,0,0,0-1.38-.992h-.427V83.2h14.154v5.6a1.453,1.453,0,0,0,1.455,1.452h7.11Z"
            transform="translate(23.545 6.423)" fill="#e0a45e" />
        <path id="Path_87" data-name="Path 87"
            d="M560.174,82.748h-.449v5.04h15.118v-5.04H560.174ZM574.4,87.341H560.174V83.2H574.4Z"
            transform="translate(33.087 6.423)" fill="#e0a45e" />
        <path id="Path_88" data-name="Path 88"
            d="M545.261,105.065H544.5l.377.667,5.528,9.794.39.69.388-.69,5.533-9.794.377-.667H545.261Zm5.53,10.241-5.53-9.794h11.061Z"
            transform="translate(13.757 34.75)" fill="#e0a45e" />
        <path id="Path_89" data-name="Path 89"
            d="M564.8,102.114H544a2.341,2.341,0,1,0,0,4.682h20.8a2.341,2.341,0,1,0,0-4.682Zm0,4.235H544a1.894,1.894,0,1,1,0-3.788h20.8a1.894,1.894,0,1,1,0,3.788Z"
            transform="translate(10.151 31.005)" fill="#e0a45e" />
        <path id="Path_90" data-name="Path 90"
            d="M572.323,99.59h-15a1.006,1.006,0,1,1,0-2.013h14.326l-.2-.59-2.675-8-.1-.306h-22.7l-.1.306L539.545,107.9l-.2.588H575.3l-.2-.588-2.676-8Zm-32.354,8.449,6.325-18.91h22.058l2.676,8h-13.7a1.453,1.453,0,1,0,0,2.907H572l2.676,8Z"
            transform="translate(7.225 13.951)" fill="#e0a45e" />
        <path id="Path_91" data-name="Path 91"
            d="M535.19,78.772h-.447v7.01h76.5v-7.01H535.19ZM610.8,85.335H535.19V79.219H610.8Z"
            transform="translate(1.377 1.376)" fill="#e0a45e" />
        <path id="Path_92" data-name="Path 92"
            d="M540.648,98.295h-.962l.62.735,4.847,5.757.134.161H568.5l.134-.161,4.847-5.757.62-.735H540.648Zm27.649,6.2H545.5l-4.847-5.757h32.495Z"
            transform="translate(7.651 26.157)" fill="#e0a45e" />
        <path id="Path_93" data-name="Path 93"
            d="M613.627,77.688H535.113a1.454,1.454,0,0,0-1.455,1.452v9.025a1.454,1.454,0,0,0,1.455,1.452H552.9V100.17h-.427a1.455,1.455,0,0,0-1.38.992l-7.3,21.822c-.016.05-.02.1-.032.154s-.023.088-.027.134a1.514,1.514,0,0,0,0,.288c0,.029,0,.059,0,.088a1.434,1.434,0,0,0,.1.361c.014.032.034.061.05.091a1.222,1.222,0,0,0,.107.193.389.389,0,0,0,.041.045c.009.014.016.029.025.043l6.583,7.818a4.786,4.786,0,0,0,3.5,8.063h1.532l7.6,13.466a1.455,1.455,0,0,0,2.533,0l7.6-13.468h1.53a4.786,4.786,0,0,0,3.5-8.063l6.583-7.818a.416.416,0,0,0,.025-.043c.014-.016.03-.027.043-.045a1.294,1.294,0,0,0,.1-.191c.016-.032.039-.061.052-.093a1.513,1.513,0,0,0,.1-.361c0-.029,0-.059,0-.088a1.366,1.366,0,0,0,0-.288.9.9,0,0,0-.027-.134,1.158,1.158,0,0,0-.032-.154l-3.007-9h7.142a12.4,12.4,0,0,0,12.39-12.391V96.671h7.11a1.453,1.453,0,0,0,1.455-1.452v-5.6h3.236a1.453,1.453,0,0,0,1.455-1.452V79.14A1.453,1.453,0,0,0,613.627,77.688Zm1.008,10.477a1.008,1.008,0,0,1-1.008,1.005h-3.683v6.048a1.008,1.008,0,0,1-1.008,1.005h-7.557V101.6a11.957,11.957,0,0,1-11.943,11.943h-7.763l.2.59,3.011,9.025.016.077.018.088,0,0a1.173,1.173,0,0,1,0,.2.288.288,0,0,0,0,.064.923.923,0,0,1-.07.245c-.014.023-.025.045-.059.111-.014.027-.027.057-.023.057l0,0a.781.781,0,0,0-.059.064l-.036.054,0,0-6.556,7.791-.256.3.27.29a4.34,4.34,0,0,1-3.177,7.312h-1.79l-.129.227-7.6,13.468a1.006,1.006,0,0,1-1.752,0l-7.6-13.466-.127-.227h-1.793a4.339,4.339,0,0,1-3.177-7.312l.27-.288-.256-.3-6.558-7.793-.014-.025-.025-.032-.032-.034,0,0a.9.9,0,0,1-.07-.134l-.029-.048-.009-.014a1.115,1.115,0,0,1-.068-.236v-.057l0-.02a1,1,0,0,1,0-.2l.021-.093.018-.107,7.3-21.82a1.008,1.008,0,0,1,.955-.688h.874V89.171H535.113a1.007,1.007,0,0,1-1.005-1.005V79.14a1.007,1.007,0,0,1,1.005-1.005h78.514a1.008,1.008,0,0,1,1.008,1.005Z"
            transform="translate(0)" fill="#e0a45e" />
    </g>
</svg>